<svg xmlns="http://www.w3.org/2000/svg" viewBox="0 0 1390.11 249.99"><defs><style>.cls-1{fill:#ff004b;}</style></defs><title>logoAsset 13</title><g id="Layer_2" data-name="Layer 2"><g id="Layer_1-2" data-name="Layer 1"><path class="cls-1" d="M225.49.36,211.37,1.6c-4.32.38-8.72.72-13,1.06-8.53.67-17.34,1.36-26,2.35-6.33.72-7.26,6.39-8.15,11.87-.13.8-.26,1.59-.4,2.35l-3.42,17.89a21.76,21.76,0,0,0,.31,9.44,8.72,8.72,0,0,1,3.69-6.81l.11-.08a3.26,3.26,0,0,1,.34-.22Z"/><path class="cls-1" d="M112.69,111.25,78.38,186.34,53.06,241.79l156.07-65.54A506.68,506.68,0,0,0,171,105a11,11,0,0,0-11.74-4.71Z"/><path class="cls-1" d="M188.2,35.28a176.32,176.32,0,0,0-20.76,10.49,7.63,7.63,0,0,0-3.13,9.59l49.8,114.86,7.68-75.47a32.41,32.41,0,0,0-6.21-22.57Z"/><path class="cls-1" d="M0,138l64.73,39.69a4.2,4.2,0,0,0,5.72-1.22,367.58,367.58,0,0,0,29-51.81Z"/><path class="cls-1" d="M207.17,185A492.66,492.66,0,0,0,138,220.46a4.17,4.17,0,0,0-2,3.57,4.22,4.22,0,0,0,2,3.6L174.47,250Z"/><path class="cls-1" d="M429.71,136.15c0,11.12-3.53,20-10.75,27s-15.89,10.32-26.34,10.32c-10.2,0-18.26-3.25-24.61-9.94s-9.52-15.77-9.52-27.14V55.69H331.71V137c0,18.7,5.92,34,17.54,45.43a50,50,0,0,0,18.06,12c6.79,2.64,14.94,4,24.24,4a46.68,46.68,0,0,0,25.64-7.22A72.22,72.22,0,0,0,429.71,181v15.22h26.77V55.69H429.71Z"/><path class="cls-1" d="M557.08,53.55c-18.61,0-33.56,5.85-44.58,17.43V55.69H485.73V249.27H512.5V180.75c11,11.72,25.5,17.65,43.24,17.65,21.07,0,38.13-7.13,50.68-21.18,12.48-13.78,18.8-31,18.8-51.25s-6.32-37.45-18.79-51.22C593.87,60.68,577.26,53.55,557.08,53.55Zm-2.68,24.9c13.41,0,24,4.54,32.31,13.87,7.79,8.79,11.74,20.11,11.74,33.65s-4,24.88-11.74,33.65c-8.33,9.34-18.9,13.88-32.31,13.88s-23.91-4.51-31.72-13.81c-7.46-8.8-11.25-20.14-11.25-33.72s3.79-24.91,11.27-33.72C530.49,83,540.86,78.45,554.4,78.45Z"/><path class="cls-1" d="M666.58,11.76c-9.5,8-14.32,19.89-14.32,35.5v8.43h-23V80.06h23v116.2H679V80.06H710.1V55.69H679V48.86c0-8.24,2-14.2,6-17.71s10.49-5.45,19.06-5.45h6V0h-5C688.88,0,675.91,4,666.58,11.76Z"/><path class="cls-1" d="M775.23,58.14q-14.94,6.92-23.1,19V55.69H725.36V196.26h26.77V134c0-14.52,4.09-27.16,12.14-37.56C772.78,85.6,783.48,80.32,797,80.32h5.76V53.55h-4.69C789.2,53.55,781.5,55.1,775.23,58.14Z"/><path class="cls-1" d="M918.67,71.21c-11-11.73-25.5-17.66-43.24-17.66-21.06,0-38.2,7.13-51,21.2C812.18,88.53,806,105.76,806,126s6.23,37.45,18.54,51.25c12.74,14.05,29.43,21.18,49.6,21.18,18.61,0,33.56-5.86,44.58-17.43v15.29h26.77V55.69H918.67ZM876.77,173.5c-13.41,0-24-4.54-32.31-13.87-7.79-8.78-11.74-20.1-11.74-33.66s3.95-24.87,11.74-33.64c8.33-9.34,18.9-13.88,32.31-13.88S900.68,83,908.49,92.26c7.46,8.8,11.25,20.14,11.25,33.71S916,150.89,908.48,159.7C900.68,169,890.31,173.5,876.77,173.5Z"/><path class="cls-1" d="M1146.24,57.71a50.29,50.29,0,0,0-20.07-4.16,52.56,52.56,0,0,0-18.71,3.16c-11.59,4.34-20.68,11.27-27.09,20.62a50.93,50.93,0,0,0-16.15-16.18,49.52,49.52,0,0,0-26.54-7.6c-15.57,0-28.09,5.23-37.35,15.59V55.69H973.55V196.26h26.78V112.85c0-10.92,3.16-19.23,9.7-25.44,6.19-6,13.75-9,23.1-9,8.74,0,15.73,3,21.31,9,5.67,6.48,8.54,14.93,8.54,25.11v83.67h26.78V112.85c0-10.92,3.16-19.23,9.69-25.44,6.2-6,13.75-9,23.1-9,8.74,0,15.73,3,21.31,9,5.67,6.48,8.55,14.93,8.55,25.11v83.67h26.77V112.05c0-16.86-5.34-31.14-15.93-42.48A52.41,52.41,0,0,0,1146.24,57.71Z"/><path class="cls-1" d="M1336.1,113.88c-3.58-20.27-12.72-36.17-27.2-47.27-15.33-11.55-33.52-15.56-54.06-11.94s-36.28,13.62-46.75,29.74c-9.79,15.36-12.94,33.43-9.37,53.7,3.55,20.12,13,36,28,47.15,15.5,11.5,33.86,15.48,54.58,11.83,16.29-2.87,29.16-9.21,38.26-18.84a68.19,68.19,0,0,0,17.49-34.5L1338,139l-28.4,5-.62,1.93c-4.76,15-15.14,23.69-31.71,26.61-12.24,2.16-22.67.21-31.87-5.94a44.85,44.85,0,0,1-17.26-22.1l110-19.39Zm-76.94-34.69c11.37-2,21.25-.21,30.18,5.46a43.48,43.48,0,0,1,16.49,20.3l-81.72,14.41a43.4,43.4,0,0,1,8.53-24.69C1239.11,86.26,1247.78,81.2,1259.16,79.19Z"/><polygon class="cls-1" points="1338.08 32.08 1347.31 32.08 1347.31 55.68 1351.31 55.68 1351.31 32.08 1360.55 32.08 1360.55 28.2 1338.08 28.2 1338.08 32.08"/><polygon class="cls-1" points="1385.88 28.2 1376.81 40.43 1367.58 28.2 1363.35 28.2 1363.35 55.68 1367.35 55.68 1367.35 34.7 1376.81 46.67 1386.11 34.72 1386.11 55.68 1390.11 55.68 1390.11 28.2 1385.88 28.2"/></g></g></svg>